<?xml version="1.0" encoding="UTF-8"?>
<svg width="62px" height="57px" viewBox="0 0 62 57" version="1.1" xmlns="http://www.w3.org/2000/svg" xmlns:xlink="http://www.w3.org/1999/xlink">
    <!-- Generator: Sketch 53.2 (72643) - https://sketchapp.com -->
    <title>cerveau</title>
    <desc>Created with Sketch.</desc>
    <g id="Page-1" stroke="none" stroke-width="1" fill="none" fill-rule="evenodd">
        <g id="Liam_logotype" transform="translate(-495.000000, -624.000000)" fill="#FFFFFF" fill-rule="nonzero">
            <path d="M526.0011,672.509091 C527.760429,672.563169 529.464754,671.896522 530.714331,670.66551 C531.963909,669.434498 532.648799,667.74743 532.608361,666 L539.989091,666 C539.989091,674.175418 533.971764,680.32 526.0011,680.32 C518.030436,680.32 512,674.175418 512,666 L519.446278,666 C519.406441,667.738144 520.084235,669.416841 521.322244,670.646213 C522.560253,671.875584 524.250745,672.548651 526.0011,672.509091 Z M514.970819,634.443038 C516.919192,634.443038 518.79798,635.208861 520.12009,636.531646 C522.973064,639.455696 522.973064,644.120253 520.12009,646.974684 C519.772166,647.322785 519.354658,647.462025 518.867565,647.462025 C518.380471,647.462025 517.962963,647.322785 517.615039,646.974684 C516.919192,646.348101 516.919192,645.234177 517.615039,644.537975 C519.145903,643.006329 519.145903,640.56962 517.615039,639.037975 C516.919192,638.341772 515.875421,637.924051 514.901235,637.924051 C513.927048,637.924051 512.952862,638.272152 512.18743,639.037975 C511.561167,639.734177 510.447811,639.734177 509.751964,639.037975 C509.056117,638.411392 509.056117,637.297468 509.751964,636.601266 C511.143659,635.208861 513.022447,634.443038 514.970819,634.443038 Z M554.216611,640.639241 C556.025814,642.449367 557,644.955696 557,647.462025 C557,649.968354 556.025814,652.405063 554.216611,654.21519 C552.407407,656.025316 550.041526,657 547.466891,657 L505.159371,657 C499.523008,657 495,652.405063 495,646.835443 C495,641.753165 498.687991,637.575949 503.489338,636.810127 C503.628507,635.626582 503.906846,634.512658 504.393939,633.398734 C505.089787,631.867089 505.994388,630.474684 507.177329,629.291139 C508.360269,628.107595 509.751964,627.132911 511.282828,626.506329 C514.483726,625.183544 518.102132,625.183544 521.30303,626.506329 C521.998878,626.85443 522.694725,627.202532 523.320988,627.620253 C525.338945,625.322785 528.191919,624 531.323232,624 C535.567901,624 539.186308,626.436709 540.995511,629.987342 C541.13468,629.987342 541.343434,629.987342 541.482604,630.056962 C545.379349,631.101266 548.441077,634.164557 549.554433,638.063291 C551.294052,638.481013 552.894501,639.316456 554.216611,640.639241 Z M551.781145,651.708861 C552.894501,650.594937 553.590348,648.78481 553.590348,647.183544 C553.590348,645.582278 552.964085,644.050633 551.781145,642.867089 C550.598204,641.683544 549.06734,641.056962 547.466891,641.056962 C545.866442,641.056962 544.335578,641.683544 543.152637,642.867089 C542.526375,643.563291 541.413019,643.563291 540.717172,642.867089 C540.021324,642.240506 540.021324,641.126582 540.717172,640.43038 C542.108866,639.037975 543.91807,638.132911 545.866442,637.78481 C545.10101,636.044304 543.7789,634.651899 542.039282,633.816456 C542.108866,634.094937 542.108866,634.303797 542.108866,634.582278 C542.108866,635.556962 541.343434,636.322785 540.369248,636.322785 C539.395062,636.322785 538.62963,635.556962 538.62963,634.582278 C538.62963,630.613924 535.359147,627.341772 531.392817,627.341772 C529.305275,627.341772 527.356902,628.246835 525.965208,629.778481 C526.939394,630.822785 527.635241,632.006329 528.191919,633.259494 C528.609428,634.164557 528.191919,635.208861 527.287318,635.556962 C526.382716,635.974684 525.338945,635.556962 524.991021,634.651899 C524.503928,633.537975 523.808081,632.493671 522.973064,631.658228 C522.138047,630.822785 521.094276,630.126582 519.98092,629.639241 C517.684624,628.664557 514.970819,628.664557 512.674523,629.639241 C511.561167,630.126582 510.517396,630.822785 509.682379,631.658228 C508.847363,632.493671 508.151515,633.537975 507.664422,634.651899 C507.177329,635.835443 506.89899,637.088608 506.89899,638.341772 C506.89899,639.316456 506.133558,640.082278 505.159371,640.082278 C501.47138,640.082278 498.479237,643.075949 498.479237,646.765823 C498.479237,650.455696 501.47138,653.449367 505.159371,653.449367 L506.75982,653.449367 C505.994388,652.265823 505.507295,650.803797 505.507295,649.272152 C505.507295,648.297468 504.672278,647.462025 503.698092,647.462025 C502.723906,647.462025 501.958474,646.696203 501.958474,645.721519 C501.958474,644.746835 502.723906,643.981013 503.698092,643.981013 C504.881033,643.981013 505.924804,644.398734 506.829405,645.025316 C508.2211,643.006329 510.517396,641.683544 513.161616,641.683544 C514.135802,641.683544 514.901235,642.449367 514.901235,643.424051 C514.901235,644.398734 514.135802,645.164557 513.161616,645.164557 C510.86532,645.164557 508.986532,647.044304 508.986532,649.341772 C508.986532,651.639241 510.86532,653.518987 513.161616,653.518987 L530.488215,653.518987 C532.367003,653.518987 533.897868,651.987342 533.897868,650.107595 C533.897868,648.227848 532.367003,646.696203 530.488215,646.696203 C526.800224,646.696203 523.808081,643.702532 523.808081,640.012658 C523.808081,639.037975 524.573513,638.272152 525.547699,638.272152 C526.521886,638.272152 527.287318,639.037975 527.287318,640.012658 C527.287318,641.753165 528.748597,643.21519 530.488215,643.21519 C532.227834,643.21519 533.689113,641.753165 533.689113,640.012658 C533.689113,639.177215 533.410774,638.411392 532.784512,637.78481 C532.088664,637.158228 532.088664,636.044304 532.784512,635.348101 C533.410774,634.651899 534.52413,634.651899 535.219978,635.348101 C536.472503,636.601266 537.16835,638.272152 537.16835,640.082278 C537.16835,641.962025 536.333333,643.702532 535.011223,644.955696 C536.472503,646.208861 537.377104,648.018987 537.377104,650.107595 C537.377104,651.360759 537.029181,652.544304 536.472503,653.518987 L540.299663,653.518987 C540.856341,649.202532 544.265993,645.860759 548.371493,645.860759 C549.345679,645.860759 550.111111,646.626582 550.111111,647.601266 C550.111111,648.575949 549.345679,649.341772 548.371493,649.341772 C546.144781,649.341772 544.265993,651.082278 543.7789,653.518987 L547.466891,653.518987 C549.06734,653.518987 550.598204,652.892405 551.781145,651.708861 Z" id="cerveau"></path>
        </g>
    </g>
</svg>