<?xml version="1.0" encoding="UTF-8"?>
<svg width="46px" height="57px" viewBox="0 0 46 57" version="1.1" xmlns="http://www.w3.org/2000/svg" xmlns:xlink="http://www.w3.org/1999/xlink">
    <!-- Generator: Sketch 53.2 (72643) - https://sketchapp.com -->
    <title>paperplane</title>
    <desc>Created with Sketch.</desc>
    <g id="Page-1" stroke="none" stroke-width="1" fill="none" fill-rule="evenodd">
        <g id="Liam_logotype" transform="translate(-668.000000, -624.000000)" fill="#FFFFFF" fill-rule="nonzero">
            <g id="noun_Brain_778889-Copy" transform="translate(668.000000, 624.000000)">
                <g id="Group">
                    <path d="M45.5914559,0.152452672 C45.3871838,0.00203160473 45.0807758,-0.0481087511 44.8254357,0.0521719606 L1.62189594,10.3810853 C0.804807714,10.5816467 0.191991547,11.183331 0.0387875057,11.9855767 C-0.114416536,12.7878224 0.191991547,13.590068 0.855875728,14.141612 L11.6822947,21.3618232 L12.7036549,34.2478947 C12.7036549,34.298035 12.7036549,34.3481754 12.754723,34.3983157 C12.754723,34.4484561 12.754723,34.4484561 12.805791,34.4985964 C12.856859,34.5988772 12.907927,34.6490175 12.958995,34.6991579 C12.958995,34.6991579 12.958995,34.6991579 12.958995,34.7492982 L12.958995,34.7492982 C13.010063,34.7994386 13.1121991,34.8997193 13.2143351,34.8997193 C13.2654031,34.8997193 13.2654031,34.8997193 13.3164711,34.9498596 C13.3675391,34.9498596 13.4186071,35 13.4696752,35 C13.5207432,35 13.5207432,35 13.5718112,35 L13.5718112,35 L13.5718112,35 L13.5718112,35 C13.6739472,35 13.7760832,35 13.8271513,34.9498596 C13.8782193,34.9498596 13.8782193,34.8997193 13.8782193,34.8997193 C13.9292873,34.8495789 13.9803553,34.8495789 14.0314233,34.7994386 C14.0314233,34.7994386 14.0314233,34.7994386 14.0824913,34.7994386 L21.3852173,27.9803502 L30.8327999,34.1977543 C30.8327999,34.1977543 30.8838679,34.1977543 30.8838679,34.2478947 C31.190276,34.4484561 31.5477521,34.4985964 31.9562962,34.4985964 C32.2116363,34.4985964 32.4669763,34.4484561 32.7223164,34.3481754 C33.3351326,34.147614 33.7947447,33.6963507 33.9990167,33.0946665 L33.9990167,33.0946665 L46,1.05497908 C46,0.754136943 45.897864,0.353014096 45.5914559,0.152452672 Z M16.1252119,23.3172971 C15.9720078,23.4175778 15.8698718,23.6181392 15.8698718,23.8187006 C15.8698718,23.8187006 15.8698718,23.868841 15.8188038,23.868841 L13.9803553,29.9358241 L13.3675391,21.7128057 L34.5096969,8.42561139 L16.1252119,23.3172971 Z M1.57082792,12.3365591 C1.57082792,12.2362784 1.67296395,11.9855767 1.97937203,11.8852959 L40.6889266,2.65947047 L12.754723,20.208595 L1.77509998,12.8881031 C1.51975991,12.6875416 1.57082792,12.4368399 1.57082792,12.3365591 Z M15.1038516,31.5904558 L17.0955041,25.1724903 L19.9553129,27.0778238 L15.1038516,31.5904558 Z M32.4159083,32.5431226 C32.3137723,32.743684 32.1605682,32.8439647 32.0584322,32.8439647 C31.9562962,32.8941051 31.8030921,32.8941051 31.5988201,32.8439647 L17.9636604,23.8187006 L43.3444633,3.26115474 L32.4159083,32.5431226 Z M20.0011003,48.5090909 C21.7604288,48.5631685 23.4647537,47.8965216 24.7143315,46.66551 C25.9639092,45.4344983 26.6487986,43.7474296 26.6083611,42 L33.9890909,42 C33.9890909,50.1754182 27.9717641,56.32 20.0011003,56.32 C12.0304364,56.32 6,50.1754182 6,42 L13.446278,42 C13.4064405,43.7381439 14.0842354,45.4168411 15.3222443,46.6462128 C16.5602532,47.8755844 18.2507446,48.5486505 20.0011003,48.5090909 Z" fill="#F5A623" id="paperplane"></path>
                </g>
            </g>
        </g>
    </g>
</svg>