<?xml version="1.0" encoding="UTF-8"?>
<svg width="57px" height="44px" viewBox="0 0 57 44" version="1.1" xmlns="http://www.w3.org/2000/svg" xmlns:xlink="http://www.w3.org/1999/xlink">
    <!-- Generator: Sketch 53.2 (72643) - https://sketchapp.com -->
    <title>Icotype enveloppe</title>
    <desc>Created with Sketch.</desc>
    <g id="Page-1" stroke="none" stroke-width="1" fill="none" fill-rule="evenodd">
        <g id="Liam_logotype" transform="translate(-506.000000, -93.000000)" fill="#F5AC33" fill-rule="nonzero">
            <g id="Group-2" transform="translate(386.000000, 0.000000)">
                <g id="Logo-couleur" transform="translate(88.000000, 93.000000)">
                    <path d="M88.4937606,0.191654788 C88.2406408,0.00255401738 87.8609613,-0.0604795729 87.5445616,0.0655876076 L34.0097406,13.0505072 C32.9972617,13.3026416 32.2379026,14.0590446 32.0480628,15.0675821 C31.858223,16.0761195 32.2379026,17.084657 33.0605417,17.7780265 L46.4758869,26.8548635 L47.7414855,43.0544961 C47.7414855,43.1175297 47.7414855,43.1805633 47.8047654,43.2435969 C47.8047654,43.3066305 47.8047654,43.3066305 47.8680453,43.3696641 C47.9313253,43.4957313 47.9946052,43.5587649 48.0578851,43.6217985 C48.0578851,43.6217985 48.0578851,43.6217985 48.0578851,43.684832 L48.0578851,43.684832 C48.1211651,43.7478656 48.2477249,43.8739328 48.3742848,43.8739328 C48.4375647,43.8739328 48.4375647,43.8739328 48.5008446,43.9369664 C48.5641246,43.9369664 48.6274045,44 48.6906844,44 C48.7539644,44 48.7539644,44 48.8172443,44 L48.8172443,44 L48.8172443,44 L48.8172443,44 C48.9438042,44 49.070364,44 49.1336439,43.9369664 C49.1969239,43.9369664 49.1969239,43.8739328 49.1969239,43.8739328 C49.2602038,43.8108992 49.3234837,43.8108992 49.3867637,43.7478656 C49.3867637,43.7478656 49.3867637,43.7478656 49.4500436,43.7478656 L58.4990736,35.1752974 L70.2058607,42.9914626 C70.2058607,42.9914626 70.2691406,42.9914626 70.2691406,43.0544961 C70.6488202,43.3066305 71.0917797,43.3696641 71.5980192,43.3696641 C71.9144188,43.3696641 72.2308185,43.3066305 72.5472181,43.1805633 C73.3065773,42.928429 73.8760967,42.3611267 74.1292164,41.6047236 L74.1292164,41.6047236 L89,1.32625941 C89,0.948057871 88.8734401,0.443789149 88.4937606,0.191654788 Z M51.9812408,29.3131735 C51.791401,29.4392407 51.6648412,29.691375 51.6648412,29.9435094 C51.6648412,29.9435094 51.6648412,30.006543 51.6015612,30.006543 L49.3234837,37.6336074 L48.5641246,27.2960986 L74.7620157,10.5921972 L51.9812408,29.3131735 Z M33.9464607,15.5088172 C33.9464607,15.38275 34.0730205,15.0675821 34.4527001,14.9415149 L82.4188873,3.3433343 L47.8047654,25.4050909 L34.1995804,16.2021867 C33.8831808,15.9500523 33.9464607,15.6348844 33.9464607,15.5088172 Z M50.7156422,39.7137159 L53.1835595,31.6454163 L56.7272356,34.0406927 L50.7156422,39.7137159 Z M72.1675386,40.9113541 C72.0409787,41.1634884 71.8511389,41.2895556 71.724579,41.2895556 C71.5980192,41.3525892 71.4081794,41.3525892 71.1550597,41.2895556 L54.2593183,29.9435094 L85.7094436,4.09973738 L72.1675386,40.9113541 Z" id="Icotype-enveloppe"></path>
                </g>
            </g>
        </g>
    </g>
</svg>