<?xml version="1.0" encoding="UTF-8"?>
<svg width="102px" height="92px" viewBox="0 0 102 92" version="1.1" xmlns="http://www.w3.org/2000/svg" xmlns:xlink="http://www.w3.org/1999/xlink">
    <!-- Generator: Sketch 53.2 (72643) - https://sketchapp.com -->
    <title>Logo-blanc</title>
    <desc>Created with Sketch.</desc>
    <g id="Page-1" stroke="none" stroke-width="1" fill="none" fill-rule="evenodd">
        <g id="Liam_logotype" transform="translate(-88.000000, -93.000000)" fill="#FFFFFF" fill-rule="nonzero">
            <g id="Group">
                <g id="Logo-couleur" transform="translate(88.000000, 93.000000)">
                    <path d="M88.4937606,0.191654788 C88.8734401,0.443789149 89,0.948057871 89,1.32625941 L74.1292164,41.6047236 C73.8760967,42.3611267 73.3065773,42.928429 72.5472181,43.1805633 C72.2308185,43.3066305 71.9144188,43.3696641 71.5980192,43.3696641 C71.0917797,43.3696641 70.6488202,43.3066305 70.2691406,43.0544961 C70.2691406,42.9914626 70.2058607,42.9914626 70.2058607,42.9914626 L58.4990736,35.1752974 L49.4500436,43.7478656 C49.3867637,43.7478656 49.3867637,43.7478656 49.3867637,43.7478656 C49.3234837,43.8108992 49.2602038,43.8108992 49.1969239,43.8739328 C49.1969239,43.8739328 49.1969239,43.9369664 49.1336439,43.9369664 C49.070364,44 48.9438042,44 48.8172443,44 C48.7539644,44 48.7539644,44 48.6906844,44 C48.6274045,44 48.5641246,43.9369664 48.5008446,43.9369664 C48.4375647,43.8739328 48.4375647,43.8739328 48.3742848,43.8739328 C48.2477249,43.8739328 48.1211651,43.7478656 48.0578851,43.684832 C48.0578851,43.6217985 48.0578851,43.6217985 48.0578851,43.6217985 C47.9946052,43.5587649 47.9313253,43.4957313 47.8680453,43.3696641 C47.8047654,43.3066305 47.8047654,43.3066305 47.8047654,43.2435969 C47.7414855,43.1805633 47.7414855,43.1175297 47.7414855,43.0544961 L46.4758869,26.8548635 L33.0605417,17.7780265 C32.2379026,17.084657 31.858223,16.0761195 32.0480628,15.0675821 C32.2379026,14.0590446 32.9972617,13.3026416 34.0097406,13.0505072 L87.5445616,0.0655876076 C87.8609613,-0.0604795729 88.2406408,0.00255401738 88.4937606,0.191654788 Z M51.9812408,29.3131735 L74.7620157,10.5921972 L48.5641246,27.2960986 L49.3234837,37.6336074 L51.6015612,30.006543 C51.6648412,30.006543 51.6648412,29.9435094 51.6648412,29.9435094 C51.6648412,29.691375 51.791401,29.4392407 51.9812408,29.3131735 Z M33.9464607,15.5088172 C33.9464607,15.6348844 33.8831808,15.9500523 34.1995804,16.2021867 L47.8047654,25.4050909 L82.4188873,3.3433343 L34.4527001,14.9415149 C34.0730205,15.0675821 33.9464607,15.38275 33.9464607,15.5088172 Z M50.7156422,39.7137159 L56.7272356,34.0406927 L53.1835595,31.6454163 L50.7156422,39.7137159 Z M72.1675386,40.9113541 L85.7094436,4.09973738 L54.2593183,29.9435094 L71.1550597,41.2895556 C71.4081794,41.3525892 71.5980192,41.3525892 71.724579,41.2895556 C71.8511389,41.2895556 72.0409787,41.1634884 72.1675386,40.9113541 Z M9.84,51.84 C8.52526262,51.84 7.31039517,52.541404 6.65302647,53.68 C5.99565777,54.818596 5.99565777,56.221404 6.65302647,57.36 C7.31039517,58.498596 8.52526262,59.2 9.84,59.2 L9.84,65 C4.2,65 1.42108547e-14,60.96 1.42108547e-14,55.52 C1.42108547e-14,50.08 4.2,46 9.84,46 L21.24,46 L21.24,67.76 L30,67.76 L30,73.6 L15,73.6 L15,51.84 L9.84,51.84 Z M33.16,58.2 L39,58.2 L39,73.6 L33.16,73.6 L33.16,58.2 Z M36.08,48.44 C37.0419671,48.4042396 37.9764037,48.7651316 38.6646076,49.4382102 C39.3528116,50.1112888 39.7343772,51.0374758 39.72,52 C39.72,53.9992708 38.0992708,55.62 36.1,55.62 C34.1007292,55.62 32.48,53.9992708 32.48,52 C32.4632106,51.0437886 32.8384363,50.122354 33.5184514,49.4498947 C34.1984665,48.7774353 35.1240359,48.4125281 36.08,48.44 Z M58.52,55.44 L58.52,53.2 L64.35,53.2 L64.35,73.6 L58.52,73.6 L58.52,71.36 C56.9547262,73.1122019 54.7094116,74.1036395 52.36,74.08 C46.76,74.08 42.52,69.48 42.52,63.4 C42.52,57.32 46.76,52.72 52.36,52.72 C54.7094116,52.6963605 56.9547262,53.6877981 58.52,55.44 Z M53.52,68.44 C54.8551664,68.470388 56.1446685,67.9533679 57.0890182,67.0090182 C58.0333679,66.0646685 58.550388,64.7751664 58.52,63.44 C58.52,60.6785763 56.2814237,58.44 53.52,58.44 C50.7585763,58.44 48.52,60.6785763 48.52,63.44 C48.4867228,64.7760062 49.0028138,66.0672021 49.9478058,67.0121942 C50.8927979,67.9571862 52.1839938,68.4732772 53.52,68.44 Z M93.83,52.72 C98.27,52.72 101.23,55.72 101.23,60.28 L101.23,73.6 L95.39,73.6 L95.39,62 C95.4596519,61.0307764 95.1112698,60.0780671 94.4328118,59.3824088 C93.7543538,58.6867505 92.8106633,58.3146304 91.84,58.36 C90.8167461,58.2936927 89.8135737,58.6656665 89.0809147,59.3830618 C88.3482557,60.1004571 87.9552472,61.0955771 88,62.12 L88,73.6 L82.19,73.6 L82.19,62 C82.2586653,61.0380076 81.9155509,60.0921155 81.2460989,59.3978689 C80.5766468,58.7036223 79.6438527,58.32635 78.68,58.36 C77.6567461,58.2936927 76.6535737,58.6656665 75.9209147,59.3830618 C75.1882557,60.1004571 74.7952472,61.0955771 74.84,62.12 L74.84,73.6 L69,73.6 L69,53.2 L74.84,53.2 L74.84,55.36 C76.2710876,53.6492024 78.3999506,52.6785291 80.63,52.72 C83.2657857,52.5976915 85.7497878,53.955407 87.07,56.24 C88.5522316,53.9647007 91.1159905,52.6297257 93.83,52.72 Z M23.08,85.33 C24.4220109,85.3715401 25.7220651,84.859451 26.6752395,83.9138414 C27.6284139,82.9682319 28.1508456,81.6722993 28.12,80.33 L33.75,80.33 C33.75,86.61 29.16,91.33 23.08,91.33 C17,91.33 12.4,86.61 12.4,80.33 L18.08,80.33 C18.049612,81.6651664 18.5666321,82.9546685 19.5109818,83.8990182 C20.4553315,84.8433679 21.7448336,85.360388 23.08,85.33 Z" id="Logo-blanc"></path>
                </g>
            </g>
        </g>
    </g>
</svg>