<?xml version="1.0" encoding="UTF-8"?>
<svg width="102px" height="46px" viewBox="0 0 102 46" version="1.1" xmlns="http://www.w3.org/2000/svg" xmlns:xlink="http://www.w3.org/1999/xlink">
    <!-- Generator: Sketch 53.2 (72643) - https://sketchapp.com -->
    <title>Logotype-couleur</title>
    <desc>Created with Sketch.</desc>
    <g id="Page-1" stroke="none" stroke-width="1" fill="none" fill-rule="evenodd">
        <g id="Liam_logotype" transform="translate(-860.000000, -139.000000)" fill-rule="nonzero">
            <g id="Group-3" transform="translate(772.000000, 0.000000)">
                <g id="Logo-couleur" transform="translate(88.000000, 93.000000)">
                    <g id="Logotype-couleur" transform="translate(0.000000, 46.000000)">
                        <path d="M9.84,5.84 L15,5.84 L15,27.6 L30,27.6 L30,21.76 L21.24,21.76 L21.24,0 L9.84,0 C4.2,0 0,4.08 0,9.52 C0,14.96 4.2,19 9.84,19 L9.84,13.2 C8.52526262,13.2 7.31039517,12.498596 6.65302647,11.36 C5.99565777,10.221404 5.99565777,8.81859595 6.65302647,7.67999998 C7.31039517,6.54140401 8.52526262,5.83999998 9.84,5.84 Z" id="Path" fill="#1D80DD"></path>
                        <path d="M36.08,2.44 C37.0419671,2.40423961 37.9764037,2.76513157 38.6646076,3.43821016 C39.3528116,4.11128876 39.7343772,5.03747583 39.72,6 C39.72,7.99927079 38.0992708,9.62 36.1,9.62 C34.1007292,9.62 32.48,7.99927079 32.48,6 C32.4632106,5.04378861 32.8384363,4.12235403 33.5184514,3.44989467 C34.1984665,2.77743531 35.1240359,2.41252808 36.08,2.44 Z M33.16,12.2 L39,12.2 L39,27.6 L33.16,27.6 L33.16,12.2 Z" id="Combined-Shape" fill="#E66249"></path>
                        <path d="M58.52,9.44 C56.9547262,7.68779809 54.7094116,6.69636045 52.36,6.72 C46.76,6.72 42.52,11.32 42.52,17.4 C42.52,23.48 46.76,28.08 52.36,28.08 C54.7094116,28.1036395 56.9547262,27.1122019 58.52,25.36 L58.52,27.6 L64.35,27.6 L64.35,7.2 L58.52,7.2 L58.52,9.44 Z M53.52,22.44 C52.1839938,22.4732772 50.8927979,21.9571862 49.9478058,21.0121942 C49.0028138,20.0672021 48.4867228,18.7760062 48.52,17.44 C48.52,14.6785763 50.7585763,12.44 53.52,12.44 C56.2814237,12.44 58.52,14.6785763 58.52,17.44 C58.550388,18.7751664 58.0333679,20.0646685 57.0890182,21.0090182 C56.1446685,21.9533679 54.8551664,22.470388 53.52,22.44 Z" id="Shape" fill="#F5A623"></path>
                        <path d="M93.83,6.72 C91.1159905,6.6297257 88.5522316,7.96470075 87.07,10.24 C85.7497878,7.95540696 83.2657857,6.59769148 80.63,6.72 C78.3999506,6.67852914 76.2710876,7.64920242 74.84,9.36 L74.84,7.2 L69,7.2 L69,27.6 L74.84,27.6 L74.84,16.12 C74.7952472,15.0955771 75.1882557,14.1004571 75.9209147,13.3830618 C76.6535737,12.6656665 77.6567461,12.2936927 78.68,12.36 C79.6438527,12.32635 80.5766468,12.7036223 81.2460989,13.3978689 C81.9155509,14.0921155 82.2586653,15.0380076 82.19,16 L82.19,27.6 L88,27.6 L88,16.12 C87.9552472,15.0955771 88.3482557,14.1004571 89.0809147,13.3830618 C89.8135737,12.6656665 90.8167461,12.2936927 91.84,12.36 C92.8106633,12.3146304 93.7543538,12.6867505 94.4328118,13.3824088 C95.1112698,14.0780671 95.4596519,15.0307764 95.39,16 L95.39,27.6 L101.23,27.6 L101.23,14.28 C101.23,9.72 98.27,6.72 93.83,6.72 Z" id="Path" fill="#C1C1C1"></path>
                        <path d="M23.08,39.33 C21.7448336,39.360388 20.4553315,38.8433679 19.5109818,37.8990182 C18.5666321,36.9546685 18.049612,35.6651664 18.08,34.33 L12.4,34.33 C12.4,40.61 17,45.33 23.08,45.33 C29.16,45.33 33.75,40.61 33.75,34.33 L28.12,34.33 C28.1508456,35.6722993 27.6284139,36.9682319 26.6752395,37.9138414 C25.7220651,38.859451 24.4220109,39.3715401 23.08,39.33 Z" id="Path" fill="#1D80DD"></path>
                    </g>
                </g>
            </g>
        </g>
    </g>
</svg>